<?xml version="1.0" standalone="no"?><!DOCTYPE svg PUBLIC "-//W3C//DTD SVG 1.1//EN" "http://www.w3.org/Graphics/SVG/1.1/DTD/svg11.dtd"><svg t="1746244803927" class="icon" viewBox="0 0 1024 1024" version="1.1" xmlns="http://www.w3.org/2000/svg" p-id="49881" xmlns:xlink="http://www.w3.org/1999/xlink" width="100" height="100"><path d="M511.609097 961.619254" fill="#67c23a" p-id="49882"></path><path d="M361.448122 558.582945c0 0 0 137.076982 150.928455 137.076982 150.948921 0 150.948921-137.076982 150.948921-137.076982S518.378268 691.085748 361.448122 558.582945L361.448122 558.582945zM361.448122 558.582945" fill="#67c23a" p-id="49883"></path><path d="M789.335423 502.729869c0-152.953577-124.006292-276.954753-276.959869-276.954753-152.97916 0-276.980335 124.001175-276.980335 276.954753 0 74.937736 29.79049 142.776797 78.042447 192.679347 21.945825 19.736507 45.876863 37.160341 72.217788 50.867528 14.319124 7.411807 30.125111 14.905478 46.695508 21.683858 25.333992 7.581676 52.197826 11.765975 80.025615 11.765975C665.329131 779.726577 789.335423 655.718239 789.335423 502.729869L789.335423 502.729869zM512.376577 738.175229c-129.999796 0-235.431034-105.430214-235.431034-235.44536 0-130.004913 105.436354-235.379868 235.431034-235.379868 130.010029 0 235.410568 105.374956 235.410568 235.379868C747.786121 632.745015 642.386606 738.175229 512.376577 738.175229L512.376577 738.175229zM512.376577 738.175229" fill="#67c23a" p-id="49884"></path><path d="M864.868723 415.811264c-38.969547-158.483524-182.027753-276.013311-352.49317-276.013311-170.413228 0-313.358871 117.396757-352.411305 275.788184 0 0-97.768721 15.449877-93.446275 113.787556 4.332678 98.308003 107.436918 104.285135 107.436918 104.285135 1.243317 3.14462 22.917966-3.062755 30.699186-4.378727-16.066931-38.990013-25.004487-81.712023-25.004487-126.551254 0-183.739744 148.98008-332.690148 332.725964-332.690148 183.739744 0 332.690148 148.950404 332.690148 332.690148 0 146.636708-94.818529 271.044136-226.488361 315.327712-8.470929 2.894933-17.393135-0.939395-17.393135-0.939395s-22.322401-4.179183-50.301639 3.720741c-13.764492 3.946892-19.685341 18.621103-18.857487 31.500435 1.032516 15.331173 6.840802 26.347065 22.865777 28.782533 20.62576 3.232624 49.953715 6.891967 61.023842-15.161305 3.007497-5.983271 6.265704-17.110703 13.308097-19.490913 101.741195-34.590819 183.169763-113.068172 221.799572-212.836433 0 0 102.538351-12.020778 105.544825-106.551758C959.595154 432.578136 864.868723 415.811264 864.868723 415.811264L864.868723 415.811264zM864.868723 415.811264" fill="#67c23a" p-id="49885"></path></svg>